<?xml version="1.0" standalone="no"?>
<!DOCTYPE svg PUBLIC "-//W3C//DTD SVG 20010904//EN"
 "http://www.w3.org/TR/2001/REC-SVG-20010904/DTD/svg10.dtd">
<svg version="1.0" xmlns="http://www.w3.org/2000/svg"
 width="512.000000pt" height="512.000000pt" viewBox="0 0 512.000000 512.000000"
 preserveAspectRatio="xMidYMid meet">
<metadata>
Created by potrace 1.15, written by Peter Selinger 2001-2017
</metadata>
<g transform="translate(0.000000,512.000000) scale(0.100000,-0.100000)"
fill="#000000" stroke="none">
<path d="M1668 1263 c7 -43 14 -93 15 -110 1 -18 7 -33 12 -33 6 0 1 -7 -9
-15 -17 -13 -18 -15 -3 -15 9 0 17 -4 17 -9 0 -5 6 -11 13 -14 6 -2 3 -3 -8
-1 -11 2 -26 0 -33 -5 -14 -8 34 -20 93 -22 29 -1 30 -1 5 -9 -21 -7 -18 -8
20 -11 l45 -2 -45 -7 c-44 -7 1305 -7 1605 0 l150 4 -140 6 -140 6 135 4 c94
3 114 5 65 7 -73 4 -107 19 -68 29 18 5 21 10 13 24 -5 9 -7 20 -4 23 3 3 8
49 10 104 3 54 7 104 9 111 6 17 -17 15 -105 -8 -41 -11 -104 -22 -140 -26
-36 -3 -81 -7 -100 -10 -156 -17 -880 -26 -1030 -12 -41 4 -146 21 -233 38
-87 16 -160 30 -161 30 -1 0 4 -35 12 -77z"/>
</g>
</svg>
